<?xml version="1.0" encoding="utf-8"?>
<!-- Generator: Adobe Illustrator 16.0.0, SVG Export Plug-In . SVG Version: 6.00 Build 0)  -->
<!DOCTYPE svg PUBLIC "-//W3C//DTD SVG 1.1//EN" "http://www.w3.org/Graphics/SVG/1.1/DTD/svg11.dtd">
<svg version="1.1" id="Layer_1" xmlns="http://www.w3.org/2000/svg" xmlns:xlink="http://www.w3.org/1999/xlink" x="0px" y="0px"
	 width="451.829px" height="81.992px" viewBox="0 0 451.829 81.992" enable-background="new 0 0 451.829 81.992"
	 xml:space="preserve">
<g>
	<path fill="#6791BF" d="M7.094,25.928h3.738v7.247c2.593-4.577,6.941-8.162,14.035-8.162c9.84,0,15.561,6.712,15.561,16.019V64.83
		H36.69V41.718c0-8.009-4.5-13.272-12.357-13.272c-7.628,0-13.501,5.797-13.501,13.882V64.83H7.094V25.928z"/>
	<path fill="#6791BF" d="M50.644,53.541v-0.152c0-8.086,6.941-12.662,17.01-12.662c5.416,0,9.153,0.687,12.891,1.678v-1.678
		c0-7.857-4.806-11.899-12.815-11.899c-4.729,0-8.62,1.296-12.205,3.127l-1.373-3.28c4.271-1.983,8.467-3.356,13.807-3.356
		c5.263,0,9.458,1.449,12.281,4.271c2.593,2.593,3.966,6.179,3.966,10.984V64.83h-3.661v-6.483
		c-2.67,3.737-7.476,7.399-14.875,7.399C58.424,65.746,50.644,61.626,50.644,53.541z M80.622,50.261v-4.424
		c-3.28-0.84-7.628-1.754-13.196-1.754c-8.238,0-12.814,3.66-12.814,9.076v0.152c0,5.645,5.339,8.925,11.289,8.925
		C73.833,62.237,80.622,57.355,80.622,50.261z"/>
	<path fill="#6791BF" d="M99.381,54.837V29.36h-5.645v-3.433h5.645V13.495h3.738v12.433h13.654v3.433h-13.654v25.096
		c0,5.568,3.28,7.553,7.78,7.553c1.907,0,3.509-0.381,5.721-1.373v3.509c-1.983,0.916-3.89,1.373-6.331,1.373
		C104.263,65.517,99.381,62.237,99.381,54.837z"/>
	<path fill="#6791BF" d="M127.83,9.146h3.738v24.028c2.593-4.577,6.941-8.162,14.035-8.162c9.84,0,15.561,6.712,15.561,16.019V64.83
		h-3.738V41.718c0-8.009-4.5-13.272-12.357-13.272c-7.628,0-13.501,5.797-13.501,13.882V64.83h-3.738V9.146L127.83,9.146z"/>
	<path fill="#6791BF" d="M171.38,53.541v-0.152c0-8.086,6.941-12.662,17.01-12.662c5.416,0,9.153,0.687,12.891,1.678v-1.678
		c0-7.857-4.806-11.899-12.815-11.899c-4.729,0-8.62,1.296-12.205,3.127l-1.373-3.28c4.271-1.983,8.467-3.356,13.807-3.356
		c5.263,0,9.458,1.449,12.281,4.271c2.593,2.593,3.966,6.179,3.966,10.984V64.83h-3.661v-6.483
		c-2.67,3.737-7.476,7.399-14.875,7.399C179.161,65.746,171.38,61.626,171.38,53.541z M201.358,50.261v-4.424
		c-3.28-0.84-7.628-1.754-13.196-1.754c-8.238,0-12.814,3.66-12.814,9.076v0.152c0,5.645,5.339,8.925,11.289,8.925
		C194.569,62.237,201.358,57.355,201.358,50.261z"/>
	<path fill="#6791BF" d="M218.363,25.928h3.737v7.247c2.594-4.577,6.941-8.162,14.035-8.162c9.841,0,15.562,6.712,15.562,16.019
		V64.83h-3.738V41.718c0-8.009-4.5-13.272-12.356-13.272c-7.628,0-13.502,5.797-13.502,13.882V64.83h-3.737V25.928H218.363z"/>
</g>
<g>
	<path fill="#FFFFFF" d="M263.577,23.718h7.693v17.091h20.891V23.718h7.692V64.83h-7.692V47.503H271.27V64.83h-7.693V23.718
		L263.577,23.718z"/>
	<path fill="#FFFFFF" d="M326.62,23.425h7.131l19.265,41.405h-8.132l-4.44-9.926h-20.7l-4.505,9.926h-7.881L326.62,23.425z
		 M337.627,48.503l-7.568-16.445l-7.504,16.445H337.627z"/>
	<path fill="#FFFFFF" d="M360.516,23.718h7.693v17.091H389.1V23.718h7.693V64.83H389.1V47.503h-20.891V64.83h-7.693V23.718
		L360.516,23.718z"/>
	<path fill="#FFFFFF" d="M408.049,23.718h7.131l23.453,28.426V23.718h7.568V64.83h-6.441l-24.143-29.248V64.83h-7.568V23.718z"/>
</g>
</svg>
